/* XPM */
static char *_a932efc972a4a5ee590f5d2adaf119c[] = {
/* columns rows colors chars-per-pixel */
"64 64 256 2 ",
"   c None",
".  c #010100",
"X  c #080806",
"o  c #160503",
"O  c #061507",
"+  c #171607",
"@  c #091514",
"#  c #191816",
"$  c #0E0714",
"%  c #250604",
"&  c #360704",
"*  c #231B00",
"=  c #281801",
"-  c #361A04",
";  c #281818",
":  c #351A18",
">  c #2F0C13",
",  c #0E2B0C",
"<  c #292501",
"1  c #372801",
"2  c #26271A",
"3  c #36320C",
"4  c #2D1928",
"5  c #1B2724",
"6  c #0C312B",
"7  c #272627",
"8  c #342828",
"9  c #293635",
"0  c #373837",
"q  c #2E332C",
"w  c #111C20",
"e  c #560605",
"r  c #4B0917",
"t  c #4E130B",
"y  c #6F0C04",
"u  c #453700",
"i  c #512F0A",
"p  c #6E2C06",
"a  c #551129",
"s  c #651234",
"d  c #4F312D",
"f  c #692F32",
"g  c #014305",
"h  c #055407",
"j  c #32460B",
"k  c #017105",
"l  c #084D2F",
"z  c #344D31",
"x  c #026633",
"c  c #2F7022",
"v  c #534B06",
"b  c #6D5008",
"n  c #716A0F",
"m  c #47473A",
"M  c #4D5132",
"N  c #704E31",
"B  c #70722C",
"V  c #51700E",
"C  c #343644",
"Z  c #12275D",
"A  c #4E324D",
"S  c #6F3246",
"D  c #62215E",
"F  c #055650",
"G  c #384747",
"H  c #01694C",
"J  c #07736F",
"K  c #1D6169",
"L  c #464646",
"P  c #5A5956",
"I  c #50514E",
"U  c #6C4E4D",
"Y  c #536B52",
"T  c #696958",
"R  c #706F54",
"E  c #6B4C6D",
"W  c #596A63",
"Q  c #686768",
"!  c #777875",
"~  c #6E736D",
"^  c #4E5263",
"/  c #8B0902",
"(  c #AB1006",
")  c #88370F",
"_  c #992F30",
"`  c #D70703",
"'  c #F60404",
"]  c #CE2D09",
"[  c #F5330D",
"{  c #D2272E",
"}  c #905715",
"|  c #B05210",
" . c #946F04",
".. c #A97304",
"X. c #91712E",
"o. c #9D5D34",
"O. c #F14D14",
"+. c #F77427",
"@. c #DA621F",
"#. c #A32B54",
"$. c #E12664",
"%. c #875753",
"&. c #AF514A",
"*. c #8D6D4F",
"=. c #AD6F51",
"-. c #8B716F",
";. c #AF7574",
":. c #90556C",
">. c #CF514A",
",. c #F7514E",
"<. c #FB5676",
"1. c #E0695F",
"2. c #018E04",
"3. c #008E39",
"4. c #14A71A",
"5. c #71AB0E",
"6. c #639A1B",
"7. c #02CB0E",
"8. c #00DD27",
"9. c #018D72",
"0. c #0FA159",
"q. c #778673",
"w. c #63A252",
"e. c #1AE05C",
"r. c #63D270",
"t. c #47CC2A",
"y. c #968A0D",
"u. c #AC8F07",
"i. c #90AB0C",
"p. c #AFAF0C",
"a. c #AE8C32",
"s. c #A4A330",
"d. c #CF8E08",
"f. c #CBB008",
"g. c #F5AF08",
"h. c #F9912F",
"j. c #F2AA2E",
"k. c #D69D28",
"l. c #A8D71E",
"z. c #D2CD12",
"x. c #F0D30E",
"c. c #D1ED14",
"v. c #F6F00F",
"b. c #C9CF32",
"n. c #ECD12B",
"m. c #D3F32E",
"M. c #F2EE31",
"N. c #8F9151",
"B. c #A98852",
"V. c #908F76",
"C. c #AB9372",
"Z. c #A0AE61",
"A. c #DDA25D",
"S. c #ACCC56",
"D. c #F1D159",
"F. c #D2F752",
"G. c #EDEF4D",
"H. c #F5D270",
"J. c #D4F669",
"K. c #F0ED72",
"L. c #D2CE65",
"P. c #6F0F99",
"I. c #1B6A99",
"U. c #5F629C",
"Y. c #5E58B1",
"T. c #A222A5",
"R. c #F61497",
"E. c #F52D96",
"W. c #F912A8",
"Q. c #D031A9",
"!. c #F12FA7",
"~. c #CF16A1",
"^. c #8C7689",
"/. c #9B5C9B",
"(. c #F74E91",
"). c #DD63AC",
"_. c #E913DA",
"`. c #EE66DC",
"'. c #A83DC9",
"]. c #01928E",
"[. c #06AE94",
"{. c #01B5A8",
"}. c #0895A4",
"|. c #6F8C8C",
" X c #00CEAF",
".X c #1DD58C",
"XX c #00DAC6",
"oX c #77D38D",
"OX c #979795",
"+X c #8D8E8A",
"@X c #A89094",
"#X c #99A797",
"$X c #ADA993",
"%X c #9692A8",
"&X c #99AAA9",
"*X c #A5A5A8",
"=X c #A9BAB4",
"-X c #B5B8B7",
";X c #ADAEB1",
":X c #B096AF",
">X c #F1868C",
",X c #F4AD8E",
"<X c #C8BBB7",
"1X c #F1B6AB",
"2X c #D29E9A",
"3X c #B9C3BB",
"4X c #ADCFAE",
"5X c #A8DA92",
"6X c #D1D491",
"7X c #ECD590",
"8X c #F1EF91",
"9X c #C9C6BC",
"0X c #D2D1AF",
"qX c #EDD4AC",
"wX c #F8EAA6",
"eX c #F6EAB7",
"rX c #F8F6B7",
"tX c #EFEDAD",
"yX c #CFE89B",
"uX c #B195CE",
"iX c #BBB9C6",
"pX c #B6AEC7",
"aX c #B1ACD9",
"sX c #CBBBCD",
"dX c #F5ADCD",
"fX c #ED99DE",
"gX c #B8CAC6",
"hX c #B5CBC8",
"jX c #C8CAC5",
"kX c #D5CBC8",
"lX c #D5D3CA",
"zX c #CAC9D5",
"xX c #D7CCD7",
"cX c #CBD5D5",
"vX c #D9D6D8",
"bX c #C8D2C7",
"nX c #E4D9D8",
"mX c #EDD3CF",
"MX c #DCE3D5",
"NX c #E9E7C7",
"BX c #F6EAC8",
"VX c #F9F6C6",
"CX c #E9E7DA",
"ZX c #F3EED6",
"AX c #F8F7D9",
"SX c #DCDAE2",
"DX c #D3C9E1",
"FX c #EBD9E5",
"GX c #DBE4E4",
"HX c #E5E4EA",
"JX c #EDEBEC",
"KX c #E8E5E6",
"LX c #F8FAE8",
"PX c #EDEDF2",
"IX c #F6F7F4",
"UX c #F2EEEE",
/* pixels */
"                                            #X, } / / e o . X @ $ @ @ X . . . X 0 ~                                             ",
"                                        oXw.8 & . y ] ] y d Y G 9 z 6 G G G 9 w $ . 7 P +XC.                                    ",
"                                    r.0., - ( ] t - ( y / & X . @ . + # + @ w 6 C G 9 @ . ; I R                                 ",
"                                j._ b v V | ] ( y . o & O , w @ 5 5 P 0 O + 0 L . $ 5 W ! L . o T                               ",
"                            H.+.` ` O.@.1 . X O + . . & O , . X @ 5 9 . . 9 R q.2 2 # . 7 OX+Xq X 0 -X                          ",
"                          A.[ ' O.+.[ % O . . . X . . = t t d L # q 5 . . L . 2 M I M 9 X o U @X-.. O OX                        ",
"                        A.' ` +.h.( & . O . . . . . . . 3 o ; # . @ + . , q.+X+X=XI 7 T q $ X 7 ~ : + . @                       ",
"                      ,.' [ A.| e % . X $ O X . . . . . . . . . . . . O 3 ~ q.q.V.-X-X*X$XP d I 8 ; I ~ . X                     ",
"                    ,.` ] @.i i 5 6 @ , l H X . o . . . q M M I P I L z d f f U T ! q.&X3XOXOX+XjX-.+XjX#X# w                   ",
"                  1.y p | i z 2 x x H l l . . & o.V.Z.O Y yXyX0XlXMXCXvXlX9X:X%.f f U W ~ &X$X! T *XT L &X;X, 9 cXvX            ",
"                a.o d Z.4.w.r.l l x h h . . N 7X4X5X5Xq.X q 5X=X3XbXlXvXKXJXLXUXkX@Xf r d Q +X#X+X~ T @X~ =X#XO z cXzX          ",
"              s.. m 4Xw.i.N.O x H 2.k h o b 8XyX4X5X5X5XZ.. q.0X3X9XbXlXCXJXKXKXJXIXFX:XS a S -.#X! OXOX$XV.3X+X. W cX          ",
"          s b & l 4Xl.p.i.4.0.0.4.2.0.q i H.qXyXyXyX6X5XL.M O ! 9X9XbXlXCXKXUXUXJXJXUXIXCX@XS a U :XW +Xq.V.@X9X! . |.hX        ",
"        r / f c 5Xb.i.t.2.2.4.k l {.l r A.6XtXqXtX7X7X7X7X6XY O #X9XlXvXCXKXKXJXUXUXUXJXJXJXjX%.s S -.T Y ! +X@XjXI @ =XhX      ",
"      e e R 2.S.K.5.7.2.2.h O F ].l o X.Z.$XrXwX8X$XT B *.q.N.5 OXlXlXNXnXKXJXJXJXJXJXUXUXJXUXlX-.N a r N Q q.+X$X9X+ I bX      ",
"    r e -.w.i.yXt.7.7.2., . J XXJ % X.L.V.R R R T R $X$XV.V.Q q OXlXlXvXvXGXCXJXJXJXFXCXKXJXUXUXvXT f s r d T q.V.<X+XX &XgX    ",
"    r a Z.i.L.r.7.7.h . . H XX9.- X.H.VXVXBX0XqXNXBXBXeXeX0X0XL ! NXeXvXMXGXGXGXGXGXKXUXKXFXKXKXUXGXR d f > & U q.V.0X8 m -X    ",
"  r e *.Z.i.oX8.7.g . . F XX[.> } H.eXBXBXBXrXwX7XJ.J.L.J.0XqX-.E 6X7XeXNXNXrXNXMXvXcXvXGXKXCXFXCXJXNXM 3 f r & d Y #XV.. V.    ",
"r r a C.5.r.e.8.g . . 6  X X6 ) D.qXBXeXyXb.m.m.F.8X8XwXeXZXZXdXD @XZXNXNXBXeXwXwXwXlXbX9XlXnXCXnXnXJX9X3 o > & % t I =X8 L     ",
"r r %.Z.4..X8.k . . X [.XXH / h.qXwXF.l.c.F.8XtXVXVXZXAXmXmXCXFXT./.vXAXZXBXBXeXeXwXwXqX0X9X9XbXvXnXmXKXV.. . o % o - q.I #     ",
"r r C.6.e.e.4.X . . J  X9.e +.H.J.l.c.G.8XwXrXVXAXAXAXLX2X/.!.!.Q.T.2XFXAXAXLXVXBXtXwXwXqX9X9X9XgXbXlXmXvX0 . . . . o ; q.2     ",
"N d Z.4.e.7., X . 6 {.[.< [ H.l.l.F.K.8XwXtXVXAXAXAXLXLXfX~.W.W.W.R.W.R.!.,X1X1XqX1XqXqXwXqXjXgXgX3X3XbXnX@X% . . . . o *.G 7   ",
"    |.8.e.2.. . @ ].{.l ` +.i.l.m.K.K.8XtXrXVXAXLXLXLXLXfXW.W.W.R.R.E.E.E.(.,X<.<.,.,.h.h.A.2XjX-X3X=X=XjXlXN X + + . . d Q 7   ",
"  K.t.4.4.k . O F [.x y O.k.p.G.D.K.8X8XrXVXAXAXLXLXIXLX`.W.W.W.R.R.E.E.(.E.E.(.<.,.,.h.O.' >.jXkX9X=X=X&XlX*X% d -.# . o T 0   ",
"  6Xc 3.7.g . 6 ].{.F ( h.@.G.D.K.K.8XtXrXVXAXLXLXLXAXAX_._._.~.$.$.$.~.E.R.E.(.(.=.,.,.O.[ A.<X+X-.-X3X&X~ P X * # X . . 0 A 7 ",
"  Z., 3.2., X F {.{.9.( +.g.D.K.K.K.8XrXrXVXVXtXtXqXdX>X_.T.'.T.#.( { $.R.R.W.E.<.<.,.,.,.O.N # # 7 2 m 7 9 Y I ; # L + o d I q ",
"  2 , 3.2., 6 F {.[.9./ O.j.D.D.K.8X8X8XeX8XL.7XqXtXBX).Q.T.P.Z / / #.$.R.W.R.E.E.<.$.,.{ ] R Z.0X-XV.! +X=X=XOXd A V.+ . d Q 9 ",
"B - h x 2.h Z I.{.[.9.e [ k.G.F.K.K.K.K.S.Z.L.yXrXAXfXFXT.T.P.U.D #.#.T.~.W.!.R.E.$.$.>.{ >.tX8X0X<XkXkXlX3X=X#X#X@Xi = . r ! 9 ",
"B < < x h k 6 ].{.}.9.t [ j.G.G.G.G.H.b.N.S.8XrXAXmXdXPX`.'.T.P.T.1X).E.Q.`.FXdX1X).>.&.&.=.L.yXqX9X9X9XkXkX=X&XW t % 1 X : ! 0 ",
"k.j X x h k J }.}.].9.# ] j.M.G.G.D.b.w.N.J.8XrX1XfXIXfX#.#.T.'.fXmX`.~.Q.uXIXLXLXAXeX1.1.qXH.L.tX9X9XkXlXkX9X=XW t % N * : ~ A ",
"Z.z X , 2.k 0.I.}.].J l y h.n.m.n.A.l.6.S.K.8XqX:XmXFXqXi.j v I 9XdXT.~.Q.:XmXLXAXZXVXtXA.(.tXA.L.lXkXkXvXnXlX=X~ 8 % d 3 : ~ L ",
"X.v . & g k 0.}.I.].I.l e | n.m.n.j.s.B b.F.H.C.1XeXLXqX .u b b &.).Q.Q.Q.).sXLXJXAXNXrX8X@.,XwXA.0XkXkXkXnXvX=X|.: o N 3 > Q L ",
"k.i O O . h 4. XI.I.I.F e y h.M.n.h.i.B b.L.=.1XdXAXfX(.g.g...g.>.W.Q.Q.)./.xXIXAXCXZXrX8XD.>.wXA.$XvXlXxXnXnX=X|.: o N + > Q L ",
"A.{ o , . O 3. X[.I.J F : y ) n.G.h.b.6.X.X.G.FX`.eXfX).rXdXd.g.o._.~.Q.T.sXKXCXCXCXCXZXqX8X2XmXL.@XlXkXkXmXvX&X|.; = d o ; ~ C ",
"H.(.` & . . 2 .X[.0.I.Z 7 e y ..n.h.@.n } s.,X`.,XeX`.`.fX_.@.v.o.T.T.`./.:XCXCXCXNXeXCXCXKXHXPX9X$XlXjXkXxXzX|.+X; d 2 o 7 T C ",
"  ,X' ' t O 3 n 0..XoXE a . & i | | @.p.V %.&.B.BX`.`.1XfX`.M.u._ T.T.uX/.^.MXMXCXNXCXKXHXSXGXPXKXlXjX<XkXvX;X|.+X; 8 o . 9 P 0 ",
"  0X| ' ' y , 5.y.c [.5XA./ o &.a.p.k.:.L.M N.N E A.7XdX`.dXn.v 5 U./.uX:.Q mXNXMXcXCXCXKXGXPXPXKXJXkX<XxX<X|.+X^.: X . . 0 I C ",
"  K.s.a.` ' ` R 6.i.V x r.} >.,XH.*.4 2X=.k.6.R N.N &.:.1.n.| p n *.%XpXU.M 0X-XaXcXvXlXKXPXHXHXKXJXJXkX-X|.! :XV.X . . . q L   ",
"  D.A.s.n / ' (.-.w.6.6., z L.,X-.-.C.%.X.B.=.s.T N.d.V z.v.@.f.x.f.^ &Xq.9 |.Y.=XhX0XlXHXKXFXSXKXPXPXGX! ! @X;XU . . . . 5 I   ",
"  G.A.@.a.b  .1.(.<.! w.6.c G L N ;.B.).;.B.X.y.X.i...@.g...z.G.v.x.n K z F Y.&X3XiXgXkXxXvXSXHXKXHXJXPXpX+X@X^.8 . . . $ # L   ",
"    H.@.] p | S.qX>X).@X+X+X2 . < < d f U U N , 3 n x.v.g.d.v.G.8XM.f.q 5 6 +X%XuXuXaXaXDXDXSXHXHXHXHXPXIXOXP W @ . . . 7 5 0   ",
"      B.| t % b 0XlXbX<X@XA A % . . X X X ; 8 i i V y.M.v.v.M.G.rXK.x.v , 5 E /./.uXuXaXaXzXSXSXHXHXHXPXPXHX~ 9 . . . $ d 8     ",
"        m 2 . o @X<XkX-Xd N =.A f f : $ $ o + d d i ..v.v.v.M.rXK.F.c.b , A D Y.Y.Y.uXuXzXzXxXSXSXHXHXHXPXPXPXL . . . 2 ; 8     ",
"        # 2 + o *.kX@X8 d :.=.d =.;.&._ f d i - + 3 1 3 z.G.8XVXF.J.J.b.n z Z Z Y.Y.&XaXzXcXcXSXHXHXHXHXPXPXIX%XX . X 7 . m     ",
"          z M . m V.8 d } =.*.S &.&._ &.&.&.=.%.N U X.n v s.K.c.F.J.F.J.F.v.R Z Y.uX*XpXhXDXSXSXSXHXHXHXHXPXSXzXU.. . . @ W     ",
"          m M 2 . @ N 4 %.;.;.f &.&.>.>.>.&.=.f %.=.N o.$ d v z.m.F.J.F.J.J.c.R ^ |.;XpXiXzXcXvXSXSXHXHXPXJXiXsXkXI . X ^ U.    ",
"          V.m 8 . $ A X.&.A.*.N 1.>.>.>.>.&.&.N B.;.;.a U d @ N c.J.F.F.F.m.F.b.! ^.*XpXiXzXDXDXSXSXHXHXPXDX;XiX;XiXz 6 |.|.    ",
"          $X! X . . i ).8 # $ ; f d f f f f f a f i M 0 m @ z L z.F.F.z.d.d.G.b.B %X%XsXiXzXxXSXSXHXHXHXHXpX;X%X%XxXhX|.|.|.    ",
"            $X; . . . *.A.. . . . . . . . . . . . . 7 W Y 5 Y M z.m.c. ...u.n.n.y.V.uX:XsXzXzXSXSXHXHXJXzXiX;X|.iXzXHXGX|.      ",
"            N.D $ . . $ /.%.. . . . . . . . . . $ z W W 5 5 z } z.m.c.v * b x.M.v.k.&XsXsXzXxXvXDXSXHX;XpXpX^.aXSXzXPXGX        ",
"              A @X: . . t C.m . . . . . . . . # G I G 9 # 9 v i u.M.l.< u n v.M.v.x.w.sXzXxXxXDXSXSXzXsX%XE %XSXiXcX            ",
"              P X.X.X . . & @XN . . . . . . # ^ ^ G L z q v v v x.v.i.1 v b n.M.c.v.p.$XsXxXxXxXcXDXpX^.^ +XzX&XzX&X            ",
"                C D :.- . . > =.S . . . . 7 Q Q P I A z j p.p.f.p.u.u.j b u z.m.f.z.v.b.;XxXDXFXxX:XU.A +XsX*X3XGX*X7           ",
"                  C A.N > . . $ *.A . . C ~ Q W P P C 6 1  .v.x.z.p.p.< j u p.m.f.v c.x.L.zXSXDXuX^ C +XkXOXgXcXGX+X;           ",
"                    0 /.B.o X . . 4 8 T U.V.q.~ ~ W I y.g.d.u... .c.c.3 , i 6.i.c.} n M.v.$X/.E A E ;XsX*XbXcXcX=X8 7 8         ",
"                      N ;.E b o . X C *X4XOXq.+X+Xq.N.M.j.n b ..u l.z.f.u.u y.5.p.y.y.m.m.y.; 2 T $X$X@X9XlXgXgXL ; 8 8 8       ",
"                        ^.D.N X $ *XgXQ Q %X3XgX9X|.+Xk.n u b u.z.z.c.c...u  .z.6.6.u.k.&.} V j 3 v i b } gXhXQ ; 8 8 8 8       ",
"                          @X; P ;X%XpXDXsX|.~ +X3XY ~ *.v 3 3 p.p.u b.p.u 3 b 6.6.u.o.#.s _ u u + < = o Q hX&X  8 8 8           ",
"                              -XNXkX*X+X-XvXGX&X7 $ 7 I f s 4 &._ : &.S r : #._ s r D s % i i b v p t - #XhX                    ",
"                            c v } M b b b _ _ d M s o * a y p t t t s s - $ s a r % % = = 1 p p p p t d 3X                      ",
"                          h , , 1 * u < i / / e 6.6.1 1 < < 3 u 1 1 3 1 3 = - v p u * * < = 1 u 1 , , w.                        ",
"                        w.h g , = = 1 1 1 t t t i j < = < < < < 3 1 < = = 1 1 1 u u < = 1 < * < < g ,                           ",
"                        4.2.2.3 i i 1 1 - = * - u 1 < * + < < < < < < = = = * = = 1 1 = = u < + + O ,                           ",
"                        , k 2.v p t - = = = = % 1 u 1 < < < < + * * + = + = = = - = u - = = < * + ,                             "
};
