/* XPM */
static char *baa750c21af64e2dcae688fa05d53410[] = {
/* columns rows colors chars-per-pixel */
"16 16 216 2 ",
"   c None",
".  c #020000",
"X  c #030000",
"o  c #060100",
"O  c #090500",
"+  c #0D0502",
"@  c #0C080A",
"#  c #0F130F",
"$  c #1C150E",
"%  c #1E1919",
"&  c #1B1E1F",
"*  c #241600",
"=  c #2A1E03",
"-  c #281A04",
";  c #2F1805",
":  c #311B01",
">  c #2D1B12",
",  c #2A1818",
"<  c #3A1D17",
"1  c #17211E",
"2  c #3B2500",
"3  c #352900",
"4  c #243605",
"5  c #39211B",
"6  c #182522",
"7  c #2C2727",
"8  c #2D2927",
"9  c #2D282D",
"0  c #372621",
"q  c #3B2B27",
"w  c #342A29",
"e  c #372F2D",
"r  c #2D312E",
"t  c #3D3129",
"y  c #2E363B",
"u  c #471D00",
"i  c #650D05",
"p  c #562F07",
"a  c #513D13",
"s  c #7E250F",
"d  c #492B25",
"f  c #542C2C",
"g  c #403632",
"h  c #463730",
"j  c #4C3B31",
"k  c #632C29",
"l  c #00451A",
"z  c #005317",
"x  c #046A19",
"c  c #184B24",
"v  c #00582F",
"b  c #037925",
"n  c #32702C",
"m  c #2F663D",
"M  c #694210",
"N  c #634912",
"B  c #70491C",
"V  c #41492C",
"C  c #535424",
"Z  c #414337",
"A  c #464D3B",
"S  c #554A3F",
"D  c #4C5B3E",
"F  c #624024",
"G  c #685420",
"H  c #634435",
"J  c #6F5A34",
"K  c #5D6122",
"L  c #6E633D",
"P  c #6F7035",
"I  c #104145",
"U  c #3F4652",
"Y  c #007646",
"T  c #26675A",
"R  c #0F6B78",
"E  c #167E75",
"W  c #306D64",
"Q  c #4A4643",
"!  c #4B4743",
"~  c #4F564E",
"^  c #585556",
"/  c #6B544C",
"(  c #625D5A",
")  c #77585A",
"_  c #69614A",
"`  c #676152",
"'  c #677557",
"]  c #6D7158",
"[  c #62666D",
"{  c #6F736C",
"}  c #7E7268",
"|  c #646E72",
" . c #7E6F70",
".. c #707A71",
"X. c #7F7D78",
"o. c #B13E1A",
"O. c #8F3520",
"+. c #873F39",
"@. c #804219",
"#. c #847006",
"$. c #866717",
"%. c #9B413F",
"&. c #F37127",
"*. c #BB165F",
"=. c #F13758",
"-. c #825143",
";. c #8F585C",
":. c #9B6C4D",
">. c #8C7544",
",. c #8D7F4B",
"<. c #817C73",
"1. c #C36541",
"2. c #4A881E",
"3. c #7C8208",
"4. c #51B223",
"5. c #79AB3E",
"6. c #738156",
"7. c #7C835D",
"8. c #7B9250",
"9. c #55BF40",
"0. c #7B827A",
"q. c #9F9C05",
"w. c #A48A04",
"e. c #B09C08",
"r. c #A0A20E",
"t. c #B4813A",
"y. c #B59334",
"u. c #B1B93A",
"i. c #C39A1D",
"p. c #D29C26",
"a. c #DAA030",
"s. c #E7A435",
"d. c #F4A830",
"f. c #C7CB14",
"g. c #C6D33E",
"h. c #CFD33E",
"j. c #F8F536",
"k. c #B28649",
"l. c #B5965C",
"z. c #8B8778",
"x. c #96827B",
"c. c #DA8C56",
"v. c #DFAC6E",
"b. c #D8BD70",
"n. c #FAA178",
"m. c #CFC85E",
"M. c #D5F548",
"N. c #CCD172",
"B. c #EDF465",
"V. c #B13881",
"C. c #B019B3",
"Z. c #F8269F",
"A. c #F02A9E",
"S. c #847787",
"D. c #C84AA0",
"F. c #F849BA",
"G. c #798494",
"H. c #838981",
"J. c #838883",
"K. c #9D8E89",
"L. c #91998D",
"P. c #8E8A9E",
"I. c #999598",
"U. c #A08D8E",
"Y. c #B19490",
"T. c #B6A684",
"R. c #ABAEA5",
"E. c #A8A3B4",
"W. c #AEACB0",
"Q. c #B5BAB7",
"!. c #D8A787",
"~. c #CAB685",
"^. c #FA88A5",
"/. c #C5ACAF",
"(. c #C9B4A5",
"). c #C1B4B1",
"_. c #C5BBB5",
"`. c #CCBABE",
"'. c #CBD095",
"]. c #E2E88C",
"[. c #F2F786",
"{. c #E3E69C",
"}. c #C2C6BA",
"|. c #D4C9BB",
" X c #DCD4B7",
".X c #EEC5B2",
"XX c #E9D5B8",
"oX c #E9EFAA",
"OX c #F9FDB9",
"+X c #9789CB",
"@X c #B8BFC3",
"#X c #E38ECC",
"$X c #D0ABCB",
"%X c #FDA5D4",
"&X c #C4C5C7",
"*X c #C2CECB",
"=X c #CACCCC",
"-X c #CCC7D6",
";X c #D0CEDB",
":X c #D0D1D2",
">X c #D4D1DC",
",X c #D6D2DE",
"<X c #F3C7C5",
"1X c #F2CECF",
"2X c #E5EBCE",
"3X c #F1F8D1",
"4X c #F3FED9",
"5X c #D4CEE7",
"6X c #E4E3E6",
"7X c #E8E6EF",
"8X c #E7EDE8",
"9X c #EAE8EE",
"0X c #FCFBE7",
"qX c #F0EFF4",
"wX c #F3F0F3",
"eX c #F3F4F2",
/* pixels */
"          G i > 6 1 r `         ",
"      &.s O X $ # Z ~ Q Q       ",
"    t.K l V 6.' R.).U. .<...    ",
"  J 4.b m ~.'.7.}.eXwX`.) } 0.  ",
"k 9.z T b.].{.(./.3X2X8X_.< ! { ",
"5.x I y.B.OX0XF.A.^.n.!.*X( + w ",
"2.v W d.[.oX1XC.*.Z.=.1.L.H.t w ",
"4 Y R p.h.N.<X;.D.#X.Xv. X=Xj h ",
"O.c E @.i.l.%Xc.V.$X4XXX|.&Xe e ",
"s.o.8.L :.>.k.a.k.G.:X7X6XI.% 6 ",
"  F Y./ f d #.j.g.U +X5XwXW.X 9 ",
"  A 0 / %.%.H P M.u.G.;X9X>X[   ",
"    , 0 o @ y C r.e.m.5X-XE.@X  ",
"    x.5 9 | ] w.q.3.f.T.S.Q.^   ",
"      z.<.K._ M $.N B p a H.    ",
"      n 2 u 3 = - ; : * D       "
};
