/* XPM */
static char *_4c2ae728a94492edc12f34baacb1bbc[] = {
/* columns rows colors chars-per-pixel */
"32 32 255 2 ",
"   c None",
".  c #010101",
"X  c #0C0303",
"o  c #060807",
"O  c #150804",
"+  c #031504",
"@  c #181916",
"#  c #11160F",
"$  c #261C00",
"%  c #281804",
"&  c #381505",
"*  c #251618",
"=  c #361C16",
"-  c #2F0611",
";  c #023605",
":  c #132715",
">  c #2D2300",
",  c #242200",
"<  c #342100",
"1  c #362800",
"2  c #2B251A",
"3  c #3B2918",
"4  c #35380D",
"5  c #181D22",
"6  c #2A1E20",
"7  c #192523",
"8  c #03312A",
"9  c #2C2624",
"0  c #352624",
"q  c #29332A",
"w  c #36362C",
"e  c #2C3534",
"r  c #313132",
"t  c #580907",
"y  c #54191D",
"u  c #49110D",
"i  c #651113",
"p  c #472906",
"a  c #492D01",
"s  c #632F00",
"d  c #741E37",
"f  c #442F28",
"g  c #46322A",
"h  c #483C37",
"j  c #56332F",
"k  c #672925",
"l  c #6D3433",
"z  c #410724",
"x  c #0A5B0E",
"c  c #016704",
"v  c #0B7910",
"b  c #007925",
"n  c #1B6E39",
"m  c #2A542A",
"M  c #584603",
"N  c #494616",
"B  c #595312",
"V  c #6D530E",
"C  c #7A6B05",
"Z  c #707507",
"A  c #43422B",
"S  c #59492B",
"D  c #43483B",
"F  c #584D34",
"G  c #66473C",
"H  c #725533",
"J  c #416E35",
"K  c #7C7335",
"L  c #312B7B",
"P  c #403F41",
"I  c #633A42",
"U  c #0B504C",
"Y  c #045966",
"T  c #016D6D",
"R  c #215C4D",
"E  c #494949",
"W  c #554C49",
"Q  c #485549",
"!  c #575647",
"~  c #575758",
"^  c #4C4E54",
"/  c #784A44",
"(  c #735452",
")  c #666659",
"_  c #747A58",
"`  c #5C5B62",
"'  c #6B5E6E",
"]  c #636866",
"[  c #77746B",
"{  c #7B7877",
"}  c #6F7370",
"|  c #44727D",
" . c #AD1008",
".. c #8D340B",
"X. c #AD2B0B",
"o. c #903C36",
"O. c #F43717",
"+. c #C92218",
"@. c #8E480D",
"#. c #8E7505",
"$. c #AD7A0F",
"%. c #935626",
"&. c #A4582A",
"*. c #E44B12",
"=. c #F57116",
"-. c #EC513A",
";. c #E66732",
":. c #A82D5E",
">. c #DC2B55",
",. c #D82665",
"<. c #8E594C",
"1. c #B55749",
"2. c #957657",
"3. c #896447",
"4. c #A97153",
"5. c #8E736F",
"6. c #986766",
"7. c #F4556F",
"8. c #D07977",
"9. c #E95E48",
"0. c #03A705",
"q. c #119D20",
"w. c #5D9A21",
"e. c #638833",
"r. c #6F9A1E",
"t. c #69E038",
"y. c #008D40",
"u. c #3DBF47",
"i. c #088F7A",
"p. c #0DB674",
"a. c #3D8848",
"s. c #70914A",
"d. c #798277",
"f. c #7D876D",
"g. c #4AA14C",
"h. c #0EDA41",
"j. c #5BDF52",
"k. c #90A611",
"l. c #B1B30D",
"z. c #908E2F",
"x. c #B5AE33",
"c. c #9E9A0B",
"v. c #CF9311",
"b. c #D2AD0E",
"n. c #EBA63B",
"m. c #9FC822",
"M. c #CECA0F",
"N. c #EED213",
"B. c #CBD22D",
"V. c #F6CC39",
"C. c #CEEC34",
"Z. c #F5EA2B",
"A. c #F2ED07",
"S. c #97894E",
"D. c #91B350",
"F. c #AFBE4B",
"G. c #938F7B",
"H. c #A78D71",
"J. c #AEA970",
"K. c #BD8B41",
"L. c #C8984F",
"P. c #D08571",
"I. c #EDA96F",
"U. c #CEA140",
"Y. c #8DC654",
"T. c #DBE855",
"R. c #D4F949",
"E. c #EFED50",
"W. c #E7F673",
"Q. c #F8F76F",
"!. c #D7E463",
"~. c #5F1D8C",
"^. c #777190",
"/. c #6962C1",
"(. c #B73DBF",
"). c #971BB2",
"_. c #FD0999",
"`. c #F8249A",
"'. c #F83D97",
"]. c #C812B2",
"[. c #F026A7",
"{. c #DE26A7",
"}. c #B470AE",
"|. c #A14F94",
" X c #FF6386",
".X c #CC54B1",
"XX c #DB75AC",
"oX c #E954AF",
"OX c #D420D3",
"+X c #FF64DA",
"@X c #00A998",
"#X c #01AEA6",
"$X c #10889F",
"%X c #718988",
"&X c #6A81A4",
"*X c #848B81",
"=X c #8B9288",
"-X c #969390",
";X c #A29690",
":X c #99A898",
">X c #B0A792",
",X c #9C92AD",
"<X c #A8A8A5",
"1X c #ACA7BA",
"2X c #A8B7B3",
"3X c #B6B3AC",
"4X c #9EAFAF",
"5X c #D0B094",
"6X c #E3AC91",
"7X c #F3B0BA",
"8X c #DA9A99",
"9X c #9FC484",
"0X c #B8C2B6",
"qX c #D5D390",
"wX c #EED48C",
"eX c #DEF280",
"rX c #F4F398",
"tX c #F3F18D",
"yX c #C9C4B8",
"uX c #DCDAAD",
"iX c #F5D5B3",
"pX c #F8EBB6",
"aX c #F4F4B9",
"sX c #ECECB0",
"dX c #C4EBA7",
"fX c #AF94CD",
"gX c #AFAFC5",
"hX c #FF94D5",
"jX c #DC9AC7",
"kX c #BCC7C2",
"lX c #C9CDC6",
"zX c #D5C9CA",
"xX c #D7D6CE",
"cX c #CAC5D7",
"vX c #D9D5DA",
"bX c #CDD2D4",
"nX c #F9C2D9",
"mX c #E2D9D5",
"MX c #F1CBC8",
"NX c #DEE2DB",
"BX c #E7E5CB",
"VX c #F7F5C9",
"CX c #E7E8D6",
"ZX c #F8F9D8",
"AX c #F3EED3",
"SX c #DCDBE3",
"DX c #E2DDE3",
"FX c #E5D1EB",
"GX c #F3D4E4",
"HX c #EBEAEC",
"JX c #E8E5E7",
"KX c #F7FCE9",
"LX c #E8EBF1",
"PX c #F7F8F6",
"IX c #F0ECEB",
/* pixels */
"                    Y.A i  .u e 7 5 7 # q ]                     ",
"                  e.N  .p t & # : q : e 5 q P h                 ",
"              -.O.X.% O . X % @ 7 @ 5 Q w 9 r W 0 {             ",
"            O.*...X o . . . O X . . A { %XG.W h D r .           ",
"          X.X.A 8 8 ; # S 2 J G.=X=XG.5.( } :X-X%XG.} Q         ",
"        j s.s.n b c % J.dX9Xm :XxXNXIXIXzX5.I ' G.G.:X} ~       ",
"    y N s.m.q.q.y.m L.aXuXqXJ.P 3XxXCXIXPXPXzX6.( ' d.3X` }     ",
"  t H Y.t.0.; n U 3.J.>XJ.G.J.F <XvXJXJXGXHXPXHX5.y j f.<XQ 2X  ",
"  l D.j.0.+ Y i.%.pXpXqXqXtXuX=X;XpXBXCXCXmXJXIXHX5.u y [ 5.)   ",
"z %.u.h.+ 8 @X%.wXeX!.W.rXpXBXMX|.BXZXaXpXuXlXxXmXvXw O O ) D   ",
"k s.h.; o @Xj n.C.T.rXVXZXKX.X[.{.oX7XpXiXiXuXyXkXvX:XX . O W   ",
"  u.q.X T R *.B.E.rXaXZXKXPX+X_._.`.'. X7.;.;.5XlX0XlXh 2 o g e ",
"  y.c 8 @Xj =.E.eXrXVXVXVXMXOX].+.,.[.`. X-.O.3.) } ] ^ 2 # - E ",
"B x c U #XD =.E.Q.tX!.qXaXjXOX~.d :._.[.,.>.>.J.3X;X<X:X[ f * W ",
"B ; c T #XR =.R.E.F.F.rXMXnX|.~.jXoX.XGXiX8.P.wXuXzXvX2XF & 2 ~ ",
"V o v $X$XU ..Z.V.z.!.5XMXAXC V XX{..XJXKXaXI.I.qXxXmXkXE u f ~ ",
"&.O + p.$XY u v.V.z.x.6XnXhXI.v.,.(.}.SXCXAXwX6X5XlXvXlXE = 2 ^ ",
"I. .O m p.^.= s v.$.K P.7XhX+Xb.:.(.}.NXAXCXJXLXyXyXvX4X^ - * ^ ",
"E.;.+...w.g.H 1.L.4.S.K 2.P.6X$.! ,X{ 0XbXCXJXLXKXxX<X-XW . @ E ",
"Z.L.@.1.8.K J 2.6.6.K.3.z.$.v.N.N.] Q &XgXlXSXJXLXLX-X-X9 . # r ",
"  L...V 7X3X5.5 O 6 g 3 M N.N.E.Q.#.7 ^.fXfXcXSXJXLXSX~ . o 9   ",
"    q X >X-X/ / H k = 0 3 #.Z.Q.W.m.N L /.fXcXvXFXJXPX<X. o 0   ",
"    ! 2 w j 1.6.1.1.1.1.<.H H m.R.W.R.s.^.1XcXvXSXLXLXbX` o ^   ",
"      D . ( / j o.o.o.l H G r A C.R.B.B.} 1XcXbXSXLXvX1XgX} %X  ",
"      ( o 0 / . . . . . @ Q e A C.k.V N.x.1XcXvXSXSX3X,XvXLX    ",
"        W . f G . . . 5 ^ P 4 V N.Z M Z.A.J.cXFXSX1X^.gXkX      ",
"        ( / . 0 g . r ] ~ q Z b.b.Z a B.b.M.yXFX,X' <XkX2X6     ",
"          H./ O # ` =X*Xd.S.v.#.k.l.M r.k.M.B.W ' ;XlXcX~ 9     ",
"            >XG *XgX,X1X-XS.M C l.M.V Z r.&.%.4 4 p ;X%X* 9     ",
"              f.H._ H.5.w 0 y k y k = d y z u s s p 2X          ",
"            a.; & 1 t t B > > > 1 > < 1 p , > 1 , J             ",
"            v x a 1 $ $ 4 > , , , % % $ < < > % +               "
};
